<svg xmlns="http://www.w3.org/2000/svg" xml:space="preserve" id="Layer_1" width="80" height="80" viewBox="0 0 511.985 511.985"><path d="M491.859 156.348c-12.891-30.483-31.342-57.865-54.842-81.372-23.516-23.5-50.904-41.96-81.373-54.85C324.084 6.775 290.553.001 255.992.001c-34.554 0-68.083 6.773-99.645 20.125-30.483 12.89-57.865 31.351-81.373 54.85-23.499 23.507-41.959 50.889-54.85 81.372C6.774 187.91 0 221.44 0 255.993c0 34.56 6.773 68.091 20.125 99.652 12.89 30.469 31.351 57.857 54.85 81.357 23.507 23.516 50.889 41.967 81.373 54.857 31.562 13.344 65.091 20.125 99.645 20.125 34.561 0 68.092-6.781 99.652-20.125 30.469-12.891 57.857-31.342 81.373-54.857 23.5-23.5 41.951-50.889 54.842-81.357 13.344-31.561 20.125-65.092 20.125-99.652-.001-34.553-6.782-68.083-20.126-99.645" style="fill:#66adef"/><path d="M.102 263.18c.875 32.014 7.593 63.092 20.023 92.465 12.89 30.469 31.351 57.857 54.85 81.357 23.507 23.516 50.889 41.967 81.373 54.857 31.562 13.344 65.091 20.125 99.645 20.125 34.561 0 68.092-6.781 99.652-20.125 30.469-12.891 57.857-31.342 81.373-54.857 23.5-23.5 41.951-50.889 54.842-81.357 12.438-29.373 19.156-60.451 20.031-92.465z" style="fill:#66adef"/><path d="M510.765 281.211a260 260 0 0 0 1.219-25.218c0-9.516-.516-18.953-1.531-28.289-12.719 1.961-30.984 4.516-53.998 7.054-43.688 4.82-113.904 10.57-200.463 10.57-86.552 0-156.776-5.75-200.455-10.57-23.022-2.539-41.28-5.093-53.998-7.054A260 260 0 0 0 0 255.993q0 12.703 1.219 25.218c41.53 6.25 133.027 17.436 254.773 17.436s213.242-11.186 254.773-17.436" style="fill:#88daf2"/><path d="M309.334 266.656c0 29.459-23.891 53.334-53.342 53.334-29.452 0-53.334-23.875-53.334-53.334 0-29.453 23.882-53.327 53.334-53.327 29.451.001 53.342 23.875 53.342 53.327" style="fill:#66adef"/><path d="M255.992 170.66c-52.936 0-95.997 43.069-95.997 95.997s43.062 95.988 95.997 95.988 95.996-43.061 95.996-95.988-43.06-95.997-95.996-95.997m0 138.675c-23.522 0-42.663-19.156-42.663-42.678 0-23.523 19.14-42.663 42.663-42.663 23.531 0 42.654 19.14 42.654 42.663 0 23.521-19.123 42.678-42.654 42.678" style="fill:#88daf2"/></svg>